<svg width="42" height="42" viewBox="0 0 42 42" fill="none" xmlns="http://www.w3.org/2000/svg">
<g clip-path="url(#clip0)">
<path d="M21.0001 0C9.42065 0 0 9.42065 0 21.0001C0 32.5796 9.42065 42.0003 21.0001 42.0003C32.5796 42.0003 42.0003 32.5796 42.0003 21.0001C42.0003 9.42065 32.5794 0 21.0001 0ZM21.0001 38.4002C11.4059 38.4002 3.60006 30.5943 3.60006 21.0001C3.60006 11.4059 11.4059 3.60006 21.0001 3.60006C30.5943 3.60006 38.4002 11.4059 38.4002 21.0001C38.4002 30.5943 30.5941 38.4002 21.0001 38.4002Z" fill="black"/>
<path d="M29.1257 12.8753C28.4226 12.1721 27.2825 12.1721 26.5805 12.8753L21 18.4565L15.4195 12.8753C14.7164 12.1721 13.5774 12.1721 12.8743 12.8753C12.1711 13.5784 12.1711 14.7173 12.8743 15.4205L18.4548 21.0015L12.874 26.5827C12.1709 27.2858 12.1709 28.4248 12.874 29.1279C13.2255 29.4794 13.6861 29.6553 14.1468 29.6553C14.6074 29.6553 15.0685 29.4796 15.4195 29.1279L21 23.5469L26.5805 29.1279C26.932 29.4794 27.3926 29.6553 27.8533 29.6553C28.3139 29.6553 28.7743 29.4796 29.126 29.1279C29.8291 28.4248 29.8291 27.2858 29.126 26.5827L23.5452 21.0017L29.1257 15.4207C29.8289 14.7176 29.8289 13.5784 29.1257 12.8753Z" fill="black"/>
</g>
<defs>
<clipPath id="clip0">
<rect width="42" height="42" fill="white"/>
</clipPath>
</defs>
</svg>
