<svg width="840" height="408" viewBox="0 0 840 408" fill="none" xmlns="http://www.w3.org/2000/svg">
<g opacity="0.2">
<path d="M0 408L-1.38788e-07 404.825L3.1758 404.825L3.1758 408L0 408Z" fill="#1565D8"/>
<path d="M-1.1797e-06 381.012L-1.31849e-06 377.837L3.1758 377.837L3.1758 381.012L-1.1797e-06 381.012Z" fill="#1565D8"/>
<path d="M26.9943 404.825L26.9943 408L30.1701 408L30.1701 404.825L26.9943 404.825Z" fill="#1565D8"/>
<path d="M26.9943 381.012L26.9943 377.837L30.1701 377.837L30.1701 381.012L26.9943 381.012Z" fill="#1565D8"/>
<path d="M-2.49818e-06 350.848L-2.35939e-06 354.023L3.1758 354.023L3.1758 350.848L-2.49818e-06 350.848Z" fill="#1565D8"/>
<path d="M-3.53909e-06 327.035L-3.67788e-06 323.86L3.1758 323.86L3.1758 327.035L-3.53909e-06 327.035Z" fill="#1565D8"/>
<path d="M26.9943 350.848L26.9943 354.023L30.1701 354.023L30.1701 350.848L26.9943 350.848Z" fill="#1565D8"/>
<path d="M26.9943 327.035L26.9943 323.86L30.1701 323.86L30.1701 327.035L26.9943 327.035Z" fill="#1565D8"/>
<path d="M53.9887 404.825L53.9887 408L57.1645 408L57.1645 404.825L53.9887 404.825Z" fill="#1565D8"/>
<path d="M53.9887 381.012L53.9887 377.837L57.1645 377.837L57.1645 381.012L53.9887 381.012Z" fill="#1565D8"/>
<path d="M80.983 404.825L80.983 408L84.1588 408L84.1588 404.825L80.983 404.825Z" fill="#1565D8"/>
<path d="M80.983 381.012L80.983 377.837L84.1588 377.837L84.1588 381.012L80.983 381.012Z" fill="#1565D8"/>
<path d="M53.9887 350.848L53.9887 354.023L57.1645 354.023L57.1645 350.848L53.9887 350.848Z" fill="#1565D8"/>
<path d="M53.9887 327.035L53.9887 323.86L57.1645 323.86L57.1645 327.035L53.9887 327.035Z" fill="#1565D8"/>
<path d="M80.983 350.848L80.983 354.023L84.1588 354.023L84.1588 350.848L80.983 350.848Z" fill="#1565D8"/>
<path d="M80.983 327.035L80.983 323.86L84.1588 323.86L84.1588 327.035L80.983 327.035Z" fill="#1565D8"/>
<path d="M-4.71879e-06 300.047L-4.85758e-06 296.872L3.1758 296.872L3.1758 300.047L-4.71879e-06 300.047Z" fill="#1565D8"/>
<path d="M-5.89849e-06 273.058L-6.03727e-06 269.883L3.1758 269.883L3.1758 273.058L-5.89849e-06 273.058Z" fill="#1565D8"/>
<path d="M26.9943 296.872L26.9943 300.047L30.1701 300.047L30.1701 296.872L26.9943 296.872Z" fill="#1565D8"/>
<path d="M26.9943 273.058L26.9943 269.883L30.1701 269.883L30.1701 273.058L26.9943 273.058Z" fill="#1565D8"/>
<path d="M-7.21697e-06 242.895L-7.07818e-06 246.07L3.1758 246.07L3.1758 242.895L-7.21697e-06 242.895Z" fill="#1565D8"/>
<path d="M-8.25788e-06 219.082L-8.39667e-06 215.907L3.1758 215.907L3.1758 219.082L-8.25788e-06 219.082Z" fill="#1565D8"/>
<path d="M26.9943 242.895L26.9943 246.07L30.1701 246.07L30.1701 242.895L26.9943 242.895Z" fill="#1565D8"/>
<path d="M26.9943 219.082L26.9943 215.907L30.1701 215.907L30.1701 219.082L26.9943 219.082Z" fill="#1565D8"/>
<path d="M53.9887 296.872L53.9887 300.047L57.1645 300.047L57.1645 296.872L53.9887 296.872Z" fill="#1565D8"/>
<path d="M53.9887 273.058L53.9887 269.883L57.1645 269.883L57.1645 273.058L53.9887 273.058Z" fill="#1565D8"/>
<path d="M80.983 296.872L80.983 300.047L84.1588 300.047L84.1588 296.872L80.983 296.872Z" fill="#1565D8"/>
<path d="M80.983 273.058L80.983 269.883L84.1588 269.883L84.1588 273.058L80.983 273.058Z" fill="#1565D8"/>
<path d="M53.9887 242.895L53.9887 246.07L57.1645 246.07L57.1645 242.895L53.9887 242.895Z" fill="#1565D8"/>
<path d="M53.9887 219.082L53.9887 215.907L57.1645 215.907L57.1645 219.082L53.9887 219.082Z" fill="#1565D8"/>
<path d="M80.983 242.895L80.983 246.07L84.1588 246.07L84.1588 242.895L80.983 242.895Z" fill="#1565D8"/>
<path d="M80.983 219.082L80.983 215.907L84.1588 215.907L84.1588 219.082L80.983 219.082Z" fill="#1565D8"/>
<path d="M107.977 408L107.977 404.825L111.153 404.825L111.153 408L107.977 408Z" fill="#1565D8"/>
<path d="M107.977 381.012L107.977 377.837L111.153 377.837L111.153 381.012L107.977 381.012Z" fill="#1565D8"/>
<path d="M134.972 404.825L134.972 408L138.147 408L138.147 404.825L134.972 404.825Z" fill="#1565D8"/>
<path d="M134.972 381.012L134.972 377.837L138.147 377.837L138.147 381.012L134.972 381.012Z" fill="#1565D8"/>
<path d="M107.977 350.848L107.977 354.023L111.153 354.023L111.153 350.848L107.977 350.848Z" fill="#1565D8"/>
<path d="M107.977 327.035L107.977 323.86L111.153 323.86L111.153 327.035L107.977 327.035Z" fill="#1565D8"/>
<path d="M134.972 350.848L134.972 354.023L138.147 354.023L138.147 350.848L134.972 350.848Z" fill="#1565D8"/>
<path d="M134.972 327.035L134.972 323.86L138.147 323.86L138.147 327.035L134.972 327.035Z" fill="#1565D8"/>
<path d="M161.966 404.825L161.966 408L165.142 408L165.142 404.825L161.966 404.825Z" fill="#1565D8"/>
<path d="M161.966 381.012L161.966 377.837L165.142 377.837L165.142 381.012L161.966 381.012Z" fill="#1565D8"/>
<path d="M188.96 404.825L188.96 408L192.136 408L192.136 404.825L188.96 404.825Z" fill="#1565D8"/>
<path d="M188.96 381.012L188.96 377.837L192.136 377.837L192.136 381.012L188.96 381.012Z" fill="#1565D8"/>
<path d="M161.966 350.848L161.966 354.023L165.142 354.023L165.142 350.848L161.966 350.848Z" fill="#1565D8"/>
<path d="M161.966 327.035L161.966 323.86L165.142 323.86L165.142 327.035L161.966 327.035Z" fill="#1565D8"/>
<path d="M188.96 350.848L188.96 354.023L192.136 354.023L192.136 350.848L188.96 350.848Z" fill="#1565D8"/>
<path d="M188.96 327.035L188.96 323.86L192.136 323.86L192.136 327.035L188.96 327.035Z" fill="#1565D8"/>
<path d="M107.977 300.047L107.977 296.872L111.153 296.872L111.153 300.047L107.977 300.047Z" fill="#1565D8"/>
<path d="M107.977 273.058L107.977 269.883L111.153 269.883L111.153 273.058L107.977 273.058Z" fill="#1565D8"/>
<path d="M134.972 296.872L134.972 300.047L138.147 300.047L138.147 296.872L134.972 296.872Z" fill="#1565D8"/>
<path d="M134.972 273.058L134.972 269.883L138.147 269.883L138.147 273.058L134.972 273.058Z" fill="#1565D8"/>
<path d="M107.977 242.895L107.977 246.07L111.153 246.07L111.153 242.895L107.977 242.895Z" fill="#1565D8"/>
<path d="M107.977 219.082L107.977 215.907L111.153 215.907L111.153 219.082L107.977 219.082Z" fill="#1565D8"/>
<path d="M134.972 242.895L134.972 246.07L138.147 246.07L138.147 242.895L134.972 242.895Z" fill="#1565D8"/>
<path d="M134.972 219.082L134.972 215.907L138.147 215.907L138.147 219.082L134.972 219.082Z" fill="#1565D8"/>
<path d="M161.966 296.872L161.966 300.047L165.142 300.047L165.142 296.872L161.966 296.872Z" fill="#1565D8"/>
<path d="M161.966 273.058L161.966 269.883L165.142 269.883L165.142 273.058L161.966 273.058Z" fill="#1565D8"/>
<path d="M188.96 296.872L188.96 300.047L192.136 300.047L192.136 296.872L188.96 296.872Z" fill="#1565D8"/>
<path d="M188.96 273.058L188.96 269.883L192.136 269.883L192.136 273.058L188.96 273.058Z" fill="#1565D8"/>
<path d="M161.966 242.895L161.966 246.07L165.142 246.07L165.142 242.895L161.966 242.895Z" fill="#1565D8"/>
<path d="M161.966 219.082L161.966 215.907L165.142 215.907L165.142 219.082L161.966 219.082Z" fill="#1565D8"/>
<path d="M188.96 242.895L188.96 246.07L192.136 246.07L192.136 242.895L188.96 242.895Z" fill="#1565D8"/>
<path d="M188.96 219.082L188.96 215.907L192.136 215.907L192.136 219.082L188.96 219.082Z" fill="#1565D8"/>
<path d="M-9.43758e-06 192.093L-9.57637e-06 188.918L3.17579 188.918L3.17579 192.093L-9.43758e-06 192.093Z" fill="#1565D8"/>
<path d="M-1.06173e-05 165.105L-1.07561e-05 161.93L3.17579 161.93L3.17579 165.105L-1.06173e-05 165.105Z" fill="#1565D8"/>
<path d="M26.9943 188.918L26.9943 192.093L30.1701 192.093L30.1701 188.918L26.9943 188.918Z" fill="#1565D8"/>
<path d="M26.9943 165.105L26.9943 161.93L30.1701 161.93L30.1701 165.105L26.9943 165.105Z" fill="#1565D8"/>
<path d="M-1.19358e-05 134.942L-1.1797e-05 138.117L3.17579 138.117L3.17579 134.942L-1.19358e-05 134.942Z" fill="#1565D8"/>
<path d="M-1.29767e-05 111.128L-1.31155e-05 107.953L3.17579 107.953L3.17579 111.128L-1.29767e-05 111.128Z" fill="#1565D8"/>
<path d="M26.9943 134.942L26.9943 138.117L30.1701 138.117L30.1701 134.942L26.9943 134.942Z" fill="#1565D8"/>
<path d="M26.9943 111.128L26.9943 107.953L30.1701 107.953L30.1701 111.128L26.9943 111.128Z" fill="#1565D8"/>
<path d="M53.9886 188.918L53.9886 192.093L57.1645 192.093L57.1645 188.918L53.9886 188.918Z" fill="#1565D8"/>
<path d="M53.9886 165.105L53.9886 161.93L57.1645 161.93L57.1645 165.105L53.9886 165.105Z" fill="#1565D8"/>
<path d="M80.983 188.918L80.983 192.093L84.1588 192.093L84.1588 188.918L80.983 188.918Z" fill="#1565D8"/>
<path d="M80.983 165.105L80.983 161.93L84.1588 161.93L84.1588 165.105L80.983 165.105Z" fill="#1565D8"/>
<path d="M53.9886 134.942L53.9886 138.117L57.1645 138.117L57.1645 134.942L53.9886 134.942Z" fill="#1565D8"/>
<path d="M53.9886 111.128L53.9886 107.953L57.1644 107.953L57.1645 111.128L53.9886 111.128Z" fill="#1565D8"/>
<path d="M80.983 134.942L80.983 138.117L84.1588 138.117L84.1588 134.942L80.983 134.942Z" fill="#1565D8"/>
<path d="M80.983 111.128L80.983 107.953L84.1588 107.953L84.1588 111.128L80.983 111.128Z" fill="#1565D8"/>
<path d="M-1.41564e-05 84.1401L-1.42952e-05 80.965L3.17579 80.965L3.17579 84.1401L-1.41564e-05 84.1401Z" fill="#1565D8"/>
<path d="M-1.53361e-05 57.1518L-1.54749e-05 53.9767L3.17579 53.9767L3.17579 57.1518L-1.53361e-05 57.1518Z" fill="#1565D8"/>
<path d="M26.9943 80.965L26.9943 84.1401L30.1701 84.1401L30.1701 80.965L26.9943 80.965Z" fill="#1565D8"/>
<path d="M26.9943 57.1518L26.9943 53.9767L30.1701 53.9767L30.1701 57.1518L26.9943 57.1518Z" fill="#1565D8"/>
<path d="M-1.66545e-05 26.9884L-1.65158e-05 30.1635L3.17579 30.1635L3.17579 26.9884L-1.66545e-05 26.9884Z" fill="#1565D8"/>
<path d="M-1.76955e-05 3.17514L-1.78342e-05 3.05176e-05L3.17579 3.03788e-05L3.17579 3.17514L-1.76955e-05 3.17514Z" fill="#1565D8"/>
<path d="M26.9943 26.9884L26.9943 30.1635L30.1701 30.1635L30.1701 26.9884L26.9943 26.9884Z" fill="#1565D8"/>
<path d="M26.9943 3.17514L26.9943 2.93376e-05L30.1701 2.91988e-05L30.1701 3.17514L26.9943 3.17514Z" fill="#1565D8"/>
<path d="M53.9886 80.965L53.9886 84.1401L57.1644 84.1401L57.1644 80.965L53.9886 80.965Z" fill="#1565D8"/>
<path d="M53.9886 57.1518L53.9886 53.9767L57.1644 53.9767L57.1644 57.1518L53.9886 57.1518Z" fill="#1565D8"/>
<path d="M80.983 80.965L80.983 84.1401L84.1588 84.1401L84.1588 80.965L80.983 80.965Z" fill="#1565D8"/>
<path d="M80.983 57.1518L80.983 53.9767L84.1588 53.9767L84.1588 57.1518L80.983 57.1518Z" fill="#1565D8"/>
<path d="M53.9886 26.9884L53.9886 30.1634L57.1644 30.1634L57.1644 26.9884L53.9886 26.9884Z" fill="#1565D8"/>
<path d="M53.9886 3.17514L53.9886 2.81577e-05L57.1644 2.80188e-05L57.1644 3.17514L53.9886 3.17514Z" fill="#1565D8"/>
<path d="M80.983 26.9884L80.983 30.1634L84.1588 30.1634L84.1588 26.9884L80.983 26.9884Z" fill="#1565D8"/>
<path d="M80.983 3.17514L80.983 2.69777e-05L84.1588 2.68389e-05L84.1588 3.17514L80.983 3.17514Z" fill="#1565D8"/>
<path d="M107.977 192.093L107.977 188.918L111.153 188.918L111.153 192.093L107.977 192.093Z" fill="#1565D8"/>
<path d="M107.977 165.105L107.977 161.93L111.153 161.93L111.153 165.105L107.977 165.105Z" fill="#1565D8"/>
<path d="M134.972 188.918L134.972 192.093L138.147 192.093L138.147 188.918L134.972 188.918Z" fill="#1565D8"/>
<path d="M134.972 165.105L134.972 161.93L138.147 161.93L138.147 165.105L134.972 165.105Z" fill="#1565D8"/>
<path d="M107.977 134.942L107.977 138.117L111.153 138.117L111.153 134.942L107.977 134.942Z" fill="#1565D8"/>
<path d="M107.977 111.128L107.977 107.953L111.153 107.953L111.153 111.128L107.977 111.128Z" fill="#1565D8"/>
<path d="M134.972 134.942L134.972 138.117L138.147 138.117L138.147 134.942L134.972 134.942Z" fill="#1565D8"/>
<path d="M134.972 111.128L134.972 107.953L138.147 107.953L138.147 111.128L134.972 111.128Z" fill="#1565D8"/>
<path d="M161.966 188.918L161.966 192.093L165.142 192.093L165.142 188.918L161.966 188.918Z" fill="#1565D8"/>
<path d="M161.966 165.105L161.966 161.93L165.142 161.93L165.142 165.105L161.966 165.105Z" fill="#1565D8"/>
<path d="M188.96 188.918L188.96 192.093L192.136 192.093L192.136 188.918L188.96 188.918Z" fill="#1565D8"/>
<path d="M188.96 165.105L188.96 161.93L192.136 161.93L192.136 165.105L188.96 165.105Z" fill="#1565D8"/>
<path d="M161.966 134.942L161.966 138.117L165.142 138.117L165.142 134.942L161.966 134.942Z" fill="#1565D8"/>
<path d="M161.966 111.128L161.966 107.953L165.142 107.953L165.142 111.128L161.966 111.128Z" fill="#1565D8"/>
<path d="M188.96 134.942L188.96 138.117L192.136 138.117L192.136 134.942L188.96 134.942Z" fill="#1565D8"/>
<path d="M188.96 111.128L188.96 107.953L192.136 107.953L192.136 111.128L188.96 111.128Z" fill="#1565D8"/>
<path d="M107.977 84.1401L107.977 80.965L111.153 80.965L111.153 84.1401L107.977 84.1401Z" fill="#1565D8"/>
<path d="M107.977 57.1518L107.977 53.9767L111.153 53.9767L111.153 57.1518L107.977 57.1518Z" fill="#1565D8"/>
<path d="M134.972 80.965L134.972 84.1401L138.147 84.1401L138.147 80.965L134.972 80.965Z" fill="#1565D8"/>
<path d="M134.972 57.1518L134.972 53.9767L138.147 53.9767L138.147 57.1518L134.972 57.1518Z" fill="#1565D8"/>
<path d="M107.977 26.9884L107.977 30.1634L111.153 30.1634L111.153 26.9884L107.977 26.9884Z" fill="#1565D8"/>
<path d="M107.977 3.17514L107.977 2.57977e-05L111.153 2.56589e-05L111.153 3.17514L107.977 3.17514Z" fill="#1565D8"/>
<path d="M134.972 26.9884L134.972 30.1634L138.147 30.1634L138.147 26.9884L134.972 26.9884Z" fill="#1565D8"/>
<path d="M134.972 3.17513L134.972 2.46178e-05L138.147 2.4479e-05L138.147 3.17513L134.972 3.17513Z" fill="#1565D8"/>
<path d="M161.966 80.965L161.966 84.1401L165.142 84.1401L165.142 80.965L161.966 80.965Z" fill="#1565D8"/>
<path d="M161.966 57.1518L161.966 53.9767L165.142 53.9767L165.142 57.1518L161.966 57.1518Z" fill="#1565D8"/>
<path d="M188.96 80.965L188.96 84.1401L192.136 84.1401L192.136 80.965L188.96 80.965Z" fill="#1565D8"/>
<path d="M188.96 57.1518L188.96 53.9767L192.136 53.9767L192.136 57.1518L188.96 57.1518Z" fill="#1565D8"/>
<path d="M161.966 26.9884L161.966 30.1634L165.142 30.1634L165.142 26.9884L161.966 26.9884Z" fill="#1565D8"/>
<path d="M161.966 3.17513L161.966 2.34378e-05L165.142 2.3299e-05L165.142 3.17513L161.966 3.17513Z" fill="#1565D8"/>
<path d="M188.96 26.9884L188.96 30.1634L192.136 30.1634L192.136 26.9884L188.96 26.9884Z" fill="#1565D8"/>
<path d="M188.96 3.17513L188.96 2.22579e-05L192.136 2.2119e-05L192.136 3.17513L188.96 3.17513Z" fill="#1565D8"/>
<path d="M215.955 404.825L215.955 408L219.13 408L219.13 404.825L215.955 404.825Z" fill="#1565D8"/>
<path d="M215.955 377.837L215.955 381.012L219.13 381.012L219.13 377.837L215.955 377.837Z" fill="#1565D8"/>
<path d="M242.949 408L242.949 404.825L246.125 404.825L246.125 408L242.949 408Z" fill="#1565D8"/>
<path d="M242.949 377.837L242.949 381.012L246.125 381.012L246.125 377.837L242.949 377.837Z" fill="#1565D8"/>
<path d="M215.955 354.023L215.955 350.848L219.13 350.848L219.13 354.023L215.955 354.023Z" fill="#1565D8"/>
<path d="M215.955 323.86L215.955 327.035L219.13 327.035L219.13 323.86L215.955 323.86Z" fill="#1565D8"/>
<path d="M242.949 354.023L242.949 350.848L246.125 350.848L246.125 354.023L242.949 354.023Z" fill="#1565D8"/>
<path d="M242.949 323.86L242.949 327.035L246.125 327.035L246.125 323.86L242.949 323.86Z" fill="#1565D8"/>
<path d="M269.943 408L269.943 404.825L273.119 404.825L273.119 408L269.943 408Z" fill="#1565D8"/>
<path d="M269.943 377.837L269.943 381.012L273.119 381.012L273.119 377.837L269.943 377.837Z" fill="#1565D8"/>
<path d="M296.938 408L296.938 404.825L300.113 404.825L300.113 408L296.938 408Z" fill="#1565D8"/>
<path d="M296.938 377.837L296.938 381.012L300.113 381.012L300.113 377.837L296.938 377.837Z" fill="#1565D8"/>
<path d="M269.943 354.023L269.943 350.848L273.119 350.848L273.119 354.023L269.943 354.023Z" fill="#1565D8"/>
<path d="M269.943 323.86L269.943 327.035L273.119 327.035L273.119 323.86L269.943 323.86Z" fill="#1565D8"/>
<path d="M296.938 354.023L296.938 350.848L300.113 350.848L300.113 354.023L296.938 354.023Z" fill="#1565D8"/>
<path d="M296.938 323.86L296.938 327.035L300.113 327.035L300.113 323.86L296.938 323.86Z" fill="#1565D8"/>
<path d="M215.955 296.872L215.955 300.047L219.13 300.047L219.13 296.872L215.955 296.872Z" fill="#1565D8"/>
<path d="M215.955 269.883L215.955 273.058L219.13 273.058L219.13 269.883L215.955 269.883Z" fill="#1565D8"/>
<path d="M242.949 300.047L242.949 296.872L246.125 296.872L246.125 300.047L242.949 300.047Z" fill="#1565D8"/>
<path d="M242.949 269.883L242.949 273.058L246.125 273.058L246.125 269.883L242.949 269.883Z" fill="#1565D8"/>
<path d="M215.955 246.07L215.955 242.895L219.13 242.895L219.13 246.07L215.955 246.07Z" fill="#1565D8"/>
<path d="M215.955 215.907L215.955 219.082L219.13 219.082L219.13 215.907L215.955 215.907Z" fill="#1565D8"/>
<path d="M242.949 246.07L242.949 242.895L246.125 242.895L246.125 246.07L242.949 246.07Z" fill="#1565D8"/>
<path d="M242.949 215.907L242.949 219.082L246.125 219.082L246.125 215.907L242.949 215.907Z" fill="#1565D8"/>
<path d="M269.943 300.047L269.943 296.872L273.119 296.872L273.119 300.047L269.943 300.047Z" fill="#1565D8"/>
<path d="M269.943 269.883L269.943 273.058L273.119 273.058L273.119 269.883L269.943 269.883Z" fill="#1565D8"/>
<path d="M296.938 300.047L296.938 296.872L300.113 296.872L300.113 300.047L296.938 300.047Z" fill="#1565D8"/>
<path d="M296.938 269.883L296.938 273.058L300.113 273.058L300.113 269.883L296.938 269.883Z" fill="#1565D8"/>
<path d="M269.943 246.07L269.943 242.895L273.119 242.895L273.119 246.07L269.943 246.07Z" fill="#1565D8"/>
<path d="M269.943 215.907L269.943 219.082L273.119 219.082L273.119 215.907L269.943 215.907Z" fill="#1565D8"/>
<path d="M296.938 246.07L296.938 242.895L300.113 242.895L300.113 246.07L296.938 246.07Z" fill="#1565D8"/>
<path d="M296.938 215.907L296.938 219.082L300.113 219.082L300.113 215.907L296.938 215.907Z" fill="#1565D8"/>
<path d="M323.932 404.825L323.932 408L327.108 408L327.108 404.825L323.932 404.825Z" fill="#1565D8"/>
<path d="M323.932 377.837L323.932 381.012L327.108 381.012L327.108 377.837L323.932 377.837Z" fill="#1565D8"/>
<path d="M350.926 408L350.926 404.825L354.102 404.825L354.102 408L350.926 408Z" fill="#1565D8"/>
<path d="M350.926 377.837L350.926 381.012L354.102 381.012L354.102 377.837L350.926 377.837Z" fill="#1565D8"/>
<path d="M323.932 354.023L323.932 350.848L327.108 350.848L327.108 354.023L323.932 354.023Z" fill="#1565D8"/>
<path d="M323.932 323.86L323.932 327.035L327.108 327.035L327.108 323.86L323.932 323.86Z" fill="#1565D8"/>
<path d="M350.926 354.023L350.926 350.848L354.102 350.848L354.102 354.023L350.926 354.023Z" fill="#1565D8"/>
<path d="M350.926 323.86L350.926 327.035L354.102 327.035L354.102 323.86L350.926 323.86Z" fill="#1565D8"/>
<path d="M377.921 408L377.921 404.825L381.096 404.825L381.096 408L377.921 408Z" fill="#1565D8"/>
<path d="M377.921 377.837L377.921 381.012L381.096 381.012L381.096 377.837L377.921 377.837Z" fill="#1565D8"/>
<path d="M404.915 408L404.915 404.825L408.091 404.825L408.091 408L404.915 408Z" fill="#1565D8"/>
<path d="M404.915 377.837L404.915 381.012L408.091 381.012L408.091 377.837L404.915 377.837Z" fill="#1565D8"/>
<path d="M377.921 354.023L377.921 350.848L381.096 350.848L381.096 354.023L377.921 354.023Z" fill="#1565D8"/>
<path d="M377.921 323.86L377.921 327.035L381.096 327.035L381.096 323.86L377.921 323.86Z" fill="#1565D8"/>
<path d="M404.915 354.023L404.915 350.848L408.091 350.848L408.091 354.023L404.915 354.023Z" fill="#1565D8"/>
<path d="M404.915 323.86L404.915 327.035L408.091 327.035L408.091 323.86L404.915 323.86Z" fill="#1565D8"/>
<path d="M323.932 296.872L323.932 300.047L327.108 300.047L327.108 296.872L323.932 296.872Z" fill="#1565D8"/>
<path d="M323.932 269.883L323.932 273.058L327.108 273.058L327.108 269.883L323.932 269.883Z" fill="#1565D8"/>
<path d="M350.926 300.047L350.926 296.872L354.102 296.872L354.102 300.047L350.926 300.047Z" fill="#1565D8"/>
<path d="M350.926 269.883L350.926 273.058L354.102 273.058L354.102 269.883L350.926 269.883Z" fill="#1565D8"/>
<path d="M323.932 246.07L323.932 242.895L327.108 242.895L327.108 246.07L323.932 246.07Z" fill="#1565D8"/>
<path d="M323.932 215.907L323.932 219.082L327.108 219.082L327.108 215.907L323.932 215.907Z" fill="#1565D8"/>
<path d="M350.926 246.07L350.926 242.895L354.102 242.895L354.102 246.07L350.926 246.07Z" fill="#1565D8"/>
<path d="M350.926 215.907L350.926 219.082L354.102 219.082L354.102 215.907L350.926 215.907Z" fill="#1565D8"/>
<path d="M377.921 300.047L377.921 296.872L381.096 296.872L381.096 300.047L377.921 300.047Z" fill="#1565D8"/>
<path d="M377.921 269.883L377.921 273.058L381.096 273.058L381.096 269.883L377.921 269.883Z" fill="#1565D8"/>
<path d="M404.915 300.047L404.915 296.872L408.091 296.872L408.091 300.047L404.915 300.047Z" fill="#1565D8"/>
<path d="M404.915 269.883L404.915 273.058L408.091 273.058L408.091 269.883L404.915 269.883Z" fill="#1565D8"/>
<path d="M377.921 246.07L377.921 242.895L381.096 242.895L381.096 246.07L377.921 246.07Z" fill="#1565D8"/>
<path d="M377.921 215.907L377.921 219.082L381.096 219.082L381.096 215.907L377.921 215.907Z" fill="#1565D8"/>
<path d="M404.915 246.07L404.915 242.895L408.091 242.895L408.091 246.07L404.915 246.07Z" fill="#1565D8"/>
<path d="M404.915 215.907L404.915 219.082L408.091 219.082L408.091 215.907L404.915 215.907Z" fill="#1565D8"/>
<path d="M215.955 192.093L215.955 188.918L219.13 188.918L219.13 192.093L215.955 192.093Z" fill="#1565D8"/>
<path d="M215.955 165.105L215.955 161.93L219.13 161.93L219.13 165.105L215.955 165.105Z" fill="#1565D8"/>
<path d="M242.949 188.918L242.949 192.093L246.125 192.093L246.125 188.918L242.949 188.918Z" fill="#1565D8"/>
<path d="M242.949 165.105L242.949 161.93L246.125 161.93L246.125 165.105L242.949 165.105Z" fill="#1565D8"/>
<path d="M215.955 134.942L215.955 138.117L219.13 138.117L219.13 134.942L215.955 134.942Z" fill="#1565D8"/>
<path d="M215.955 111.128L215.955 107.953L219.13 107.953L219.13 111.128L215.955 111.128Z" fill="#1565D8"/>
<path d="M242.949 134.942L242.949 138.117L246.125 138.117L246.125 134.942L242.949 134.942Z" fill="#1565D8"/>
<path d="M242.949 111.128L242.949 107.953L246.125 107.953L246.125 111.128L242.949 111.128Z" fill="#1565D8"/>
<path d="M269.943 188.918L269.943 192.093L273.119 192.093L273.119 188.918L269.943 188.918Z" fill="#1565D8"/>
<path d="M269.943 165.105L269.943 161.93L273.119 161.93L273.119 165.105L269.943 165.105Z" fill="#1565D8"/>
<path d="M296.938 188.918L296.938 192.093L300.113 192.093L300.113 188.918L296.938 188.918Z" fill="#1565D8"/>
<path d="M296.938 165.105L296.938 161.93L300.113 161.93L300.113 165.105L296.938 165.105Z" fill="#1565D8"/>
<path d="M269.943 134.942L269.943 138.117L273.119 138.117L273.119 134.942L269.943 134.942Z" fill="#1565D8"/>
<path d="M269.943 111.128L269.943 107.953L273.119 107.953L273.119 111.128L269.943 111.128Z" fill="#1565D8"/>
<path d="M296.938 134.942L296.938 138.117L300.113 138.117L300.113 134.942L296.938 134.942Z" fill="#1565D8"/>
<path d="M296.938 111.128L296.938 107.953L300.113 107.953L300.113 111.128L296.938 111.128Z" fill="#1565D8"/>
<path d="M215.955 84.1401L215.955 80.965L219.13 80.965L219.13 84.1401L215.955 84.1401Z" fill="#1565D8"/>
<path d="M215.955 57.1518L215.955 53.9767L219.13 53.9767L219.13 57.1518L215.955 57.1518Z" fill="#1565D8"/>
<path d="M242.949 80.965L242.949 84.1401L246.125 84.1401L246.125 80.965L242.949 80.965Z" fill="#1565D8"/>
<path d="M242.949 57.1518L242.949 53.9767L246.125 53.9767L246.125 57.1518L242.949 57.1518Z" fill="#1565D8"/>
<path d="M215.955 26.9884L215.955 30.1634L219.13 30.1634L219.13 26.9884L215.955 26.9884Z" fill="#1565D8"/>
<path d="M215.955 3.17513L215.955 2.10779e-05L219.13 2.09391e-05L219.13 3.17513L215.955 3.17513Z" fill="#1565D8"/>
<path d="M242.949 26.9884L242.949 30.1634L246.125 30.1634L246.125 26.9884L242.949 26.9884Z" fill="#1565D8"/>
<path d="M242.949 3.17513L242.949 1.98979e-05L246.125 1.97591e-05L246.125 3.17513L242.949 3.17513Z" fill="#1565D8"/>
<path d="M269.943 80.965L269.943 84.1401L273.119 84.1401L273.119 80.965L269.943 80.965Z" fill="#1565D8"/>
<path d="M269.943 57.1518L269.943 53.9767L273.119 53.9767L273.119 57.1518L269.943 57.1518Z" fill="#1565D8"/>
<path d="M296.938 80.965L296.938 84.1401L300.113 84.1401L300.113 80.965L296.938 80.965Z" fill="#1565D8"/>
<path d="M296.938 57.1518L296.938 53.9767L300.113 53.9767L300.113 57.1518L296.938 57.1518Z" fill="#1565D8"/>
<path d="M269.943 26.9884L269.943 30.1634L273.119 30.1634L273.119 26.9884L269.943 26.9884Z" fill="#1565D8"/>
<path d="M269.943 3.17513L269.943 1.8718e-05L273.119 1.85792e-05L273.119 3.17513L269.943 3.17513Z" fill="#1565D8"/>
<path d="M296.938 26.9884L296.938 30.1634L300.113 30.1634L300.113 26.9884L296.938 26.9884Z" fill="#1565D8"/>
<path d="M296.938 3.17513L296.938 1.7538e-05L300.113 1.73992e-05L300.113 3.17513L296.938 3.17513Z" fill="#1565D8"/>
<path d="M323.932 192.093L323.932 188.918L327.108 188.918L327.108 192.093L323.932 192.093Z" fill="#1565D8"/>
<path d="M323.932 165.105L323.932 161.93L327.108 161.93L327.108 165.105L323.932 165.105Z" fill="#1565D8"/>
<path d="M350.926 188.918L350.926 192.093L354.102 192.093L354.102 188.918L350.926 188.918Z" fill="#1565D8"/>
<path d="M350.926 165.105L350.926 161.93L354.102 161.93L354.102 165.105L350.926 165.105Z" fill="#1565D8"/>
<path d="M323.932 134.942L323.932 138.117L327.108 138.117L327.108 134.942L323.932 134.942Z" fill="#1565D8"/>
<path d="M323.932 111.128L323.932 107.953L327.108 107.953L327.108 111.128L323.932 111.128Z" fill="#1565D8"/>
<path d="M350.926 134.942L350.926 138.117L354.102 138.117L354.102 134.942L350.926 134.942Z" fill="#1565D8"/>
<path d="M350.926 111.128L350.926 107.953L354.102 107.953L354.102 111.128L350.926 111.128Z" fill="#1565D8"/>
<path d="M377.921 188.918L377.921 192.093L381.096 192.093L381.096 188.918L377.921 188.918Z" fill="#1565D8"/>
<path d="M377.921 165.105L377.921 161.93L381.096 161.93L381.096 165.105L377.921 165.105Z" fill="#1565D8"/>
<path d="M404.915 188.918L404.915 192.093L408.091 192.093L408.091 188.918L404.915 188.918Z" fill="#1565D8"/>
<path d="M404.915 165.105L404.915 161.93L408.091 161.93L408.091 165.105L404.915 165.105Z" fill="#1565D8"/>
<path d="M377.921 134.942L377.921 138.117L381.096 138.117L381.096 134.942L377.921 134.942Z" fill="#1565D8"/>
<path d="M377.921 111.128L377.921 107.953L381.096 107.953L381.096 111.128L377.921 111.128Z" fill="#1565D8"/>
<path d="M404.915 134.942L404.915 138.117L408.091 138.117L408.091 134.942L404.915 134.942Z" fill="#1565D8"/>
<path d="M404.915 111.128L404.915 107.953L408.091 107.953L408.091 111.128L404.915 111.128Z" fill="#1565D8"/>
<path d="M323.932 84.1401L323.932 80.965L327.108 80.965L327.108 84.1401L323.932 84.1401Z" fill="#1565D8"/>
<path d="M323.932 57.1518L323.932 53.9767L327.108 53.9767L327.108 57.1518L323.932 57.1518Z" fill="#1565D8"/>
<path d="M350.926 80.965L350.926 84.1401L354.102 84.1401L354.102 80.965L350.926 80.965Z" fill="#1565D8"/>
<path d="M350.926 57.1518L350.926 53.9767L354.102 53.9767L354.102 57.1518L350.926 57.1518Z" fill="#1565D8"/>
<path d="M323.932 26.9884L323.932 30.1634L327.108 30.1634L327.108 26.9884L323.932 26.9884Z" fill="#1565D8"/>
<path d="M323.932 3.17513L323.932 1.63581e-05L327.108 1.62192e-05L327.108 3.17513L323.932 3.17513Z" fill="#1565D8"/>
<path d="M350.926 26.9884L350.926 30.1634L354.102 30.1634L354.102 26.9884L350.926 26.9884Z" fill="#1565D8"/>
<path d="M350.926 3.17513L350.926 1.51781e-05L354.102 1.50393e-05L354.102 3.17512L350.926 3.17513Z" fill="#1565D8"/>
<path d="M377.921 80.965L377.921 84.1401L381.096 84.1401L381.096 80.965L377.921 80.965Z" fill="#1565D8"/>
<path d="M377.921 57.1518L377.921 53.9767L381.096 53.9767L381.096 57.1518L377.921 57.1518Z" fill="#1565D8"/>
<path d="M404.915 80.965L404.915 84.1401L408.091 84.1401L408.091 80.965L404.915 80.965Z" fill="#1565D8"/>
<path d="M404.915 57.1518L404.915 53.9767L408.091 53.9767L408.091 57.1518L404.915 57.1518Z" fill="#1565D8"/>
<path d="M377.921 26.9884L377.921 30.1634L381.096 30.1634L381.096 26.9884L377.921 26.9884Z" fill="#1565D8"/>
<path d="M377.921 3.17512L377.921 1.39981e-05L381.096 1.38593e-05L381.096 3.17512L377.921 3.17512Z" fill="#1565D8"/>
<path d="M404.915 26.9884L404.915 30.1634L408.091 30.1634L408.091 26.9884L404.915 26.9884Z" fill="#1565D8"/>
<path d="M404.915 3.17512L404.915 1.28182e-05L408.091 1.26794e-05L408.091 3.17512L404.915 3.17512Z" fill="#1565D8"/>
<path d="M431.909 408L431.909 404.825L435.085 404.825L435.085 408L431.909 408Z" fill="#1565D8"/>
<path d="M431.909 381.012L431.909 377.837L435.085 377.837L435.085 381.012L431.909 381.012Z" fill="#1565D8"/>
<path d="M458.904 404.825L458.904 408L462.079 408L462.079 404.825L458.904 404.825Z" fill="#1565D8"/>
<path d="M458.904 381.012L458.904 377.837L462.079 377.837L462.079 381.012L458.904 381.012Z" fill="#1565D8"/>
<path d="M431.909 350.848L431.909 354.023L435.085 354.023L435.085 350.848L431.909 350.848Z" fill="#1565D8"/>
<path d="M431.909 327.035L431.909 323.86L435.085 323.86L435.085 327.035L431.909 327.035Z" fill="#1565D8"/>
<path d="M458.904 350.848L458.904 354.023L462.079 354.023L462.079 350.848L458.904 350.848Z" fill="#1565D8"/>
<path d="M458.904 327.035L458.904 323.86L462.079 323.86L462.079 327.035L458.904 327.035Z" fill="#1565D8"/>
<path d="M485.898 404.825L485.898 408L489.074 408L489.074 404.825L485.898 404.825Z" fill="#1565D8"/>
<path d="M485.898 381.012L485.898 377.837L489.074 377.837L489.074 381.012L485.898 381.012Z" fill="#1565D8"/>
<path d="M512.892 404.825L512.892 408L516.068 408L516.068 404.825L512.892 404.825Z" fill="#1565D8"/>
<path d="M512.892 381.012L512.892 377.837L516.068 377.837L516.068 381.012L512.892 381.012Z" fill="#1565D8"/>
<path d="M485.898 350.848L485.898 354.023L489.074 354.023L489.074 350.848L485.898 350.848Z" fill="#1565D8"/>
<path d="M485.898 327.035L485.898 323.86L489.074 323.86L489.074 327.035L485.898 327.035Z" fill="#1565D8"/>
<path d="M512.892 350.848L512.892 354.023L516.068 354.023L516.068 350.848L512.892 350.848Z" fill="#1565D8"/>
<path d="M512.892 327.035L512.892 323.86L516.068 323.86L516.068 327.035L512.892 327.035Z" fill="#1565D8"/>
<path d="M431.909 300.047L431.909 296.872L435.085 296.872L435.085 300.047L431.909 300.047Z" fill="#1565D8"/>
<path d="M431.909 273.058L431.909 269.883L435.085 269.883L435.085 273.058L431.909 273.058Z" fill="#1565D8"/>
<path d="M458.904 296.872L458.904 300.047L462.079 300.047L462.079 296.872L458.904 296.872Z" fill="#1565D8"/>
<path d="M458.904 273.058L458.904 269.883L462.079 269.883L462.079 273.058L458.904 273.058Z" fill="#1565D8"/>
<path d="M431.909 242.895L431.909 246.07L435.085 246.07L435.085 242.895L431.909 242.895Z" fill="#1565D8"/>
<path d="M431.909 219.082L431.909 215.907L435.085 215.907L435.085 219.082L431.909 219.082Z" fill="#1565D8"/>
<path d="M458.904 242.895L458.904 246.07L462.079 246.07L462.079 242.895L458.904 242.895Z" fill="#1565D8"/>
<path d="M458.904 219.082L458.904 215.907L462.079 215.907L462.079 219.082L458.904 219.082Z" fill="#1565D8"/>
<path d="M485.898 296.872L485.898 300.047L489.074 300.047L489.074 296.872L485.898 296.872Z" fill="#1565D8"/>
<path d="M485.898 273.058L485.898 269.883L489.074 269.883L489.074 273.058L485.898 273.058Z" fill="#1565D8"/>
<path d="M512.892 296.872L512.892 300.047L516.068 300.047L516.068 296.872L512.892 296.872Z" fill="#1565D8"/>
<path d="M512.892 273.058L512.892 269.883L516.068 269.883L516.068 273.058L512.892 273.058Z" fill="#1565D8"/>
<path d="M485.898 242.895L485.898 246.07L489.074 246.07L489.074 242.895L485.898 242.895Z" fill="#1565D8"/>
<path d="M485.898 219.082L485.898 215.907L489.074 215.907L489.074 219.082L485.898 219.082Z" fill="#1565D8"/>
<path d="M512.892 242.895L512.892 246.07L516.068 246.07L516.068 242.895L512.892 242.895Z" fill="#1565D8"/>
<path d="M512.892 219.082L512.892 215.907L516.068 215.907L516.068 219.082L512.892 219.082Z" fill="#1565D8"/>
<path d="M539.887 408L539.887 404.825L543.062 404.825L543.062 408L539.887 408Z" fill="#1565D8"/>
<path d="M539.887 381.012L539.887 377.837L543.062 377.837L543.062 381.012L539.887 381.012Z" fill="#1565D8"/>
<path d="M566.881 404.825L566.881 408L570.057 408L570.057 404.825L566.881 404.825Z" fill="#1565D8"/>
<path d="M566.881 381.012L566.881 377.837L570.057 377.837L570.057 381.012L566.881 381.012Z" fill="#1565D8"/>
<path d="M539.887 350.848L539.887 354.023L543.062 354.023L543.062 350.848L539.887 350.848Z" fill="#1565D8"/>
<path d="M539.887 327.035L539.887 323.86L543.062 323.86L543.062 327.035L539.887 327.035Z" fill="#1565D8"/>
<path d="M566.881 350.848L566.881 354.023L570.057 354.023L570.057 350.848L566.881 350.848Z" fill="#1565D8"/>
<path d="M566.881 327.035L566.881 323.86L570.057 323.86L570.057 327.035L566.881 327.035Z" fill="#1565D8"/>
<path d="M593.875 404.825L593.875 408L597.051 408L597.051 404.825L593.875 404.825Z" fill="#1565D8"/>
<path d="M593.875 381.012L593.875 377.837L597.051 377.837L597.051 381.012L593.875 381.012Z" fill="#1565D8"/>
<path d="M620.87 404.825L620.87 408L624.045 408L624.045 404.825L620.87 404.825Z" fill="#1565D8"/>
<path d="M620.87 381.012L620.87 377.837L624.045 377.837L624.045 381.012L620.87 381.012Z" fill="#1565D8"/>
<path d="M593.875 350.848L593.875 354.023L597.051 354.023L597.051 350.848L593.875 350.848Z" fill="#1565D8"/>
<path d="M593.875 327.035L593.875 323.86L597.051 323.86L597.051 327.035L593.875 327.035Z" fill="#1565D8"/>
<path d="M620.87 350.848L620.87 354.023L624.045 354.023L624.045 350.848L620.87 350.848Z" fill="#1565D8"/>
<path d="M620.87 327.035L620.87 323.86L624.045 323.86L624.045 327.035L620.87 327.035Z" fill="#1565D8"/>
<path d="M539.887 300.047L539.887 296.872L543.062 296.872L543.062 300.047L539.887 300.047Z" fill="#1565D8"/>
<path d="M539.887 273.058L539.887 269.883L543.062 269.883L543.062 273.058L539.887 273.058Z" fill="#1565D8"/>
<path d="M566.881 296.872L566.881 300.047L570.057 300.047L570.057 296.872L566.881 296.872Z" fill="#1565D8"/>
<path d="M566.881 273.058L566.881 269.883L570.057 269.883L570.057 273.058L566.881 273.058Z" fill="#1565D8"/>
<path d="M539.887 242.895L539.887 246.07L543.062 246.07L543.062 242.895L539.887 242.895Z" fill="#1565D8"/>
<path d="M539.887 219.082L539.887 215.907L543.062 215.907L543.062 219.082L539.887 219.082Z" fill="#1565D8"/>
<path d="M566.881 242.895L566.881 246.07L570.057 246.07L570.057 242.895L566.881 242.895Z" fill="#1565D8"/>
<path d="M566.881 219.082L566.881 215.907L570.057 215.907L570.057 219.082L566.881 219.082Z" fill="#1565D8"/>
<path d="M593.875 296.872L593.875 300.047L597.051 300.047L597.051 296.872L593.875 296.872Z" fill="#1565D8"/>
<path d="M593.875 273.058L593.875 269.883L597.051 269.883L597.051 273.058L593.875 273.058Z" fill="#1565D8"/>
<path d="M620.87 296.872L620.87 300.047L624.045 300.047L624.045 296.872L620.87 296.872Z" fill="#1565D8"/>
<path d="M620.87 273.058L620.87 269.883L624.045 269.883L624.045 273.058L620.87 273.058Z" fill="#1565D8"/>
<path d="M593.875 242.895L593.875 246.07L597.051 246.07L597.051 242.895L593.875 242.895Z" fill="#1565D8"/>
<path d="M593.875 219.082L593.875 215.907L597.051 215.907L597.051 219.082L593.875 219.082Z" fill="#1565D8"/>
<path d="M620.87 242.895L620.87 246.07L624.045 246.07L624.045 242.895L620.87 242.895Z" fill="#1565D8"/>
<path d="M620.87 219.082L620.87 215.907L624.045 215.907L624.045 219.082L620.87 219.082Z" fill="#1565D8"/>
<path d="M431.909 192.093L431.909 188.918L435.085 188.918L435.085 192.093L431.909 192.093Z" fill="#1565D8"/>
<path d="M431.909 165.105L431.909 161.93L435.085 161.93L435.085 165.105L431.909 165.105Z" fill="#1565D8"/>
<path d="M458.904 188.918L458.904 192.093L462.079 192.093L462.079 188.918L458.904 188.918Z" fill="#1565D8"/>
<path d="M458.904 165.105L458.904 161.93L462.079 161.93L462.079 165.105L458.904 165.105Z" fill="#1565D8"/>
<path d="M431.909 134.942L431.909 138.117L435.085 138.117L435.085 134.942L431.909 134.942Z" fill="#1565D8"/>
<path d="M431.909 111.128L431.909 107.953L435.085 107.953L435.085 111.128L431.909 111.128Z" fill="#1565D8"/>
<path d="M458.904 134.942L458.904 138.117L462.079 138.117L462.079 134.942L458.904 134.942Z" fill="#1565D8"/>
<path d="M458.904 111.128L458.904 107.953L462.079 107.953L462.079 111.128L458.904 111.128Z" fill="#1565D8"/>
<path d="M485.898 188.918L485.898 192.093L489.074 192.093L489.074 188.918L485.898 188.918Z" fill="#1565D8"/>
<path d="M485.898 165.105L485.898 161.93L489.074 161.93L489.074 165.105L485.898 165.105Z" fill="#1565D8"/>
<path d="M512.892 188.918L512.892 192.093L516.068 192.093L516.068 188.918L512.892 188.918Z" fill="#1565D8"/>
<path d="M512.892 165.105L512.892 161.93L516.068 161.93L516.068 165.105L512.892 165.105Z" fill="#1565D8"/>
<path d="M485.898 134.942L485.898 138.117L489.074 138.117L489.074 134.942L485.898 134.942Z" fill="#1565D8"/>
<path d="M485.898 111.128L485.898 107.953L489.074 107.953L489.074 111.128L485.898 111.128Z" fill="#1565D8"/>
<path d="M512.892 134.942L512.892 138.117L516.068 138.117L516.068 134.942L512.892 134.942Z" fill="#1565D8"/>
<path d="M512.892 111.128L512.892 107.953L516.068 107.953L516.068 111.128L512.892 111.128Z" fill="#1565D8"/>
<path d="M431.909 84.1401L431.909 80.965L435.085 80.965L435.085 84.1401L431.909 84.1401Z" fill="#1565D8"/>
<path d="M431.909 57.1518L431.909 53.9767L435.085 53.9767L435.085 57.1518L431.909 57.1518Z" fill="#1565D8"/>
<path d="M458.904 80.965L458.904 84.1401L462.079 84.1401L462.079 80.965L458.904 80.965Z" fill="#1565D8"/>
<path d="M458.904 57.1518L458.904 53.9767L462.079 53.9767L462.079 57.1518L458.904 57.1518Z" fill="#1565D8"/>
<path d="M431.909 26.9884L431.909 30.1634L435.085 30.1634L435.085 26.9884L431.909 26.9884Z" fill="#1565D8"/>
<path d="M431.909 3.17512L431.909 1.16382e-05L435.085 1.14994e-05L435.085 3.17512L431.909 3.17512Z" fill="#1565D8"/>
<path d="M458.904 26.9884L458.904 30.1634L462.079 30.1634L462.079 26.9884L458.904 26.9884Z" fill="#1565D8"/>
<path d="M458.904 3.17512L458.904 1.04583e-05L462.079 1.03194e-05L462.079 3.17512L458.904 3.17512Z" fill="#1565D8"/>
<path d="M485.898 80.965L485.898 84.1401L489.074 84.1401L489.074 80.965L485.898 80.965Z" fill="#1565D8"/>
<path d="M485.898 57.1518L485.898 53.9767L489.074 53.9767L489.074 57.1518L485.898 57.1518Z" fill="#1565D8"/>
<path d="M512.892 80.965L512.892 84.1401L516.068 84.1401L516.068 80.965L512.892 80.965Z" fill="#1565D8"/>
<path d="M512.892 57.1518L512.892 53.9767L516.068 53.9767L516.068 57.1518L512.892 57.1518Z" fill="#1565D8"/>
<path d="M485.898 26.9884L485.898 30.1634L489.074 30.1634L489.074 26.9884L485.898 26.9884Z" fill="#1565D8"/>
<path d="M485.898 3.17512L485.898 9.27831e-06L489.074 9.13949e-06L489.074 3.17512L485.898 3.17512Z" fill="#1565D8"/>
<path d="M512.892 26.9884L512.892 30.1634L516.068 30.1634L516.068 26.9884L512.892 26.9884Z" fill="#1565D8"/>
<path d="M512.892 3.17512L512.892 8.09834e-06L516.068 7.95953e-06L516.068 3.17512L512.892 3.17512Z" fill="#1565D8"/>
<path d="M539.887 192.093L539.887 188.918L543.062 188.918L543.062 192.093L539.887 192.093Z" fill="#1565D8"/>
<path d="M539.887 165.105L539.887 161.93L543.062 161.93L543.062 165.105L539.887 165.105Z" fill="#1565D8"/>
<path d="M566.881 188.918L566.881 192.093L570.057 192.093L570.057 188.918L566.881 188.918Z" fill="#1565D8"/>
<path d="M566.881 165.105L566.881 161.93L570.057 161.93L570.057 165.105L566.881 165.105Z" fill="#1565D8"/>
<path d="M539.887 134.942L539.887 138.117L543.062 138.117L543.062 134.942L539.887 134.942Z" fill="#1565D8"/>
<path d="M539.887 111.128L539.887 107.953L543.062 107.953L543.062 111.128L539.887 111.128Z" fill="#1565D8"/>
<path d="M566.881 134.942L566.881 138.117L570.057 138.117L570.057 134.942L566.881 134.942Z" fill="#1565D8"/>
<path d="M566.881 111.128L566.881 107.953L570.057 107.953L570.057 111.128L566.881 111.128Z" fill="#1565D8"/>
<path d="M593.875 188.918L593.875 192.093L597.051 192.093L597.051 188.918L593.875 188.918Z" fill="#1565D8"/>
<path d="M593.875 165.105L593.875 161.93L597.051 161.93L597.051 165.105L593.875 165.105Z" fill="#1565D8"/>
<path d="M620.87 188.918L620.87 192.093L624.045 192.093L624.045 188.918L620.87 188.918Z" fill="#1565D8"/>
<path d="M620.87 165.105L620.87 161.93L624.045 161.93L624.045 165.105L620.87 165.105Z" fill="#1565D8"/>
<path d="M593.875 134.942L593.875 138.117L597.051 138.117L597.051 134.942L593.875 134.942Z" fill="#1565D8"/>
<path d="M593.875 111.128L593.875 107.953L597.051 107.953L597.051 111.128L593.875 111.128Z" fill="#1565D8"/>
<path d="M620.87 134.942L620.87 138.117L624.045 138.117L624.045 134.942L620.87 134.942Z" fill="#1565D8"/>
<path d="M620.87 111.128L620.87 107.953L624.045 107.953L624.045 111.128L620.87 111.128Z" fill="#1565D8"/>
<path d="M539.887 84.1401L539.887 80.965L543.062 80.965L543.062 84.1401L539.887 84.1401Z" fill="#1565D8"/>
<path d="M539.887 57.1518L539.887 53.9767L543.062 53.9767L543.062 57.1518L539.887 57.1518Z" fill="#1565D8"/>
<path d="M566.881 80.965L566.881 84.1401L570.057 84.1401L570.057 80.965L566.881 80.965Z" fill="#1565D8"/>
<path d="M566.881 57.1518L566.881 53.9767L570.057 53.9767L570.057 57.1518L566.881 57.1518Z" fill="#1565D8"/>
<path d="M539.887 26.9883L539.887 30.1634L543.062 30.1634L543.062 26.9883L539.887 26.9883Z" fill="#1565D8"/>
<path d="M539.887 3.17512L539.887 6.91839e-06L543.062 6.77957e-06L543.062 3.17512L539.887 3.17512Z" fill="#1565D8"/>
<path d="M566.881 26.9883L566.881 30.1634L570.057 30.1634L570.057 26.9883L566.881 26.9883Z" fill="#1565D8"/>
<path d="M566.881 3.17512L566.881 5.73843e-06L570.057 5.59961e-06L570.057 3.17512L566.881 3.17512Z" fill="#1565D8"/>
<path d="M593.875 80.965L593.875 84.1401L597.051 84.1401L597.051 80.965L593.875 80.965Z" fill="#1565D8"/>
<path d="M593.875 57.1518L593.875 53.9767L597.051 53.9767L597.051 57.1518L593.875 57.1518Z" fill="#1565D8"/>
<path d="M620.87 80.965L620.87 84.1401L624.045 84.1401L624.045 80.965L620.87 80.965Z" fill="#1565D8"/>
<path d="M620.87 57.1518L620.87 53.9767L624.045 53.9767L624.045 57.1518L620.87 57.1518Z" fill="#1565D8"/>
<path d="M593.875 26.9883L593.875 30.1634L597.051 30.1634L597.051 26.9883L593.875 26.9883Z" fill="#1565D8"/>
<path d="M593.875 3.17511L593.875 4.55847e-06L597.051 4.41965e-06L597.051 3.17511L593.875 3.17511Z" fill="#1565D8"/>
<path d="M620.87 26.9883L620.87 30.1634L624.045 30.1634L624.045 26.9883L620.87 26.9883Z" fill="#1565D8"/>
<path d="M620.87 3.17511L620.87 3.37851e-06L624.045 3.23969e-06L624.045 3.17511L620.87 3.17511Z" fill="#1565D8"/>
<path d="M647.864 404.825L647.864 408L651.04 408L651.04 404.825L647.864 404.825Z" fill="#1565D8"/>
<path d="M647.864 377.837L647.864 381.012L651.04 381.012L651.04 377.837L647.864 377.837Z" fill="#1565D8"/>
<path d="M674.858 408L674.858 404.825L678.034 404.825L678.034 408L674.858 408Z" fill="#1565D8"/>
<path d="M674.858 377.837L674.858 381.012L678.034 381.012L678.034 377.837L674.858 377.837Z" fill="#1565D8"/>
<path d="M647.864 354.023L647.864 350.848L651.04 350.848L651.04 354.023L647.864 354.023Z" fill="#1565D8"/>
<path d="M647.864 323.86L647.864 327.035L651.04 327.035L651.04 323.86L647.864 323.86Z" fill="#1565D8"/>
<path d="M674.858 354.023L674.858 350.848L678.034 350.848L678.034 354.023L674.858 354.023Z" fill="#1565D8"/>
<path d="M674.858 323.86L674.858 327.035L678.034 327.035L678.034 323.86L674.858 323.86Z" fill="#1565D8"/>
<path d="M701.853 408L701.853 404.825L705.028 404.825L705.028 408L701.853 408Z" fill="#1565D8"/>
<path d="M701.853 377.837L701.853 381.012L705.028 381.012L705.028 377.837L701.853 377.837Z" fill="#1565D8"/>
<path d="M728.847 408L728.847 404.825L732.023 404.825L732.023 408L728.847 408Z" fill="#1565D8"/>
<path d="M728.847 377.837L728.847 381.012L732.023 381.012L732.023 377.837L728.847 377.837Z" fill="#1565D8"/>
<path d="M701.853 354.023L701.853 350.848L705.028 350.848L705.028 354.023L701.853 354.023Z" fill="#1565D8"/>
<path d="M701.853 323.86L701.853 327.035L705.028 327.035L705.028 323.86L701.853 323.86Z" fill="#1565D8"/>
<path d="M728.847 354.023L728.847 350.848L732.023 350.848L732.023 354.023L728.847 354.023Z" fill="#1565D8"/>
<path d="M728.847 323.86L728.847 327.035L732.023 327.035L732.023 323.86L728.847 323.86Z" fill="#1565D8"/>
<path d="M647.864 296.872L647.864 300.047L651.04 300.047L651.04 296.872L647.864 296.872Z" fill="#1565D8"/>
<path d="M647.864 269.883L647.864 273.058L651.04 273.058L651.04 269.883L647.864 269.883Z" fill="#1565D8"/>
<path d="M674.858 300.047L674.858 296.872L678.034 296.872L678.034 300.047L674.858 300.047Z" fill="#1565D8"/>
<path d="M674.858 269.883L674.858 273.058L678.034 273.058L678.034 269.883L674.858 269.883Z" fill="#1565D8"/>
<path d="M647.864 246.07L647.864 242.895L651.04 242.895L651.04 246.07L647.864 246.07Z" fill="#1565D8"/>
<path d="M647.864 215.907L647.864 219.082L651.04 219.082L651.04 215.907L647.864 215.907Z" fill="#1565D8"/>
<path d="M674.858 246.07L674.858 242.895L678.034 242.895L678.034 246.07L674.858 246.07Z" fill="#1565D8"/>
<path d="M674.858 215.907L674.858 219.082L678.034 219.082L678.034 215.907L674.858 215.907Z" fill="#1565D8"/>
<path d="M701.853 300.047L701.853 296.872L705.028 296.872L705.028 300.047L701.853 300.047Z" fill="#1565D8"/>
<path d="M701.853 269.883L701.853 273.058L705.028 273.058L705.028 269.883L701.853 269.883Z" fill="#1565D8"/>
<path d="M728.847 300.047L728.847 296.872L732.023 296.872L732.023 300.047L728.847 300.047Z" fill="#1565D8"/>
<path d="M728.847 269.883L728.847 273.058L732.023 273.058L732.023 269.883L728.847 269.883Z" fill="#1565D8"/>
<path d="M701.853 246.07L701.853 242.895L705.028 242.895L705.028 246.07L701.853 246.07Z" fill="#1565D8"/>
<path d="M701.853 215.907L701.853 219.082L705.028 219.082L705.028 215.907L701.853 215.907Z" fill="#1565D8"/>
<path d="M728.847 246.07L728.847 242.895L732.023 242.895L732.023 246.07L728.847 246.07Z" fill="#1565D8"/>
<path d="M728.847 215.907L728.847 219.082L732.023 219.082L732.023 215.907L728.847 215.907Z" fill="#1565D8"/>
<path d="M755.841 404.825L755.841 408L759.017 408L759.017 404.825L755.841 404.825Z" fill="#1565D8"/>
<path d="M755.841 377.837L755.841 381.012L759.017 381.012L759.017 377.837L755.841 377.837Z" fill="#1565D8"/>
<path d="M782.836 408L782.836 404.825L786.011 404.825L786.011 408L782.836 408Z" fill="#1565D8"/>
<path d="M782.836 377.837L782.836 381.012L786.011 381.012L786.011 377.837L782.836 377.837Z" fill="#1565D8"/>
<path d="M755.841 354.023L755.841 350.848L759.017 350.848L759.017 354.023L755.841 354.023Z" fill="#1565D8"/>
<path d="M755.841 323.86L755.841 327.035L759.017 327.035L759.017 323.86L755.841 323.86Z" fill="#1565D8"/>
<path d="M782.836 354.023L782.836 350.848L786.011 350.848L786.011 354.023L782.836 354.023Z" fill="#1565D8"/>
<path d="M782.836 323.86L782.836 327.035L786.011 327.035L786.011 323.86L782.836 323.86Z" fill="#1565D8"/>
<path d="M809.83 408L809.83 404.825L813.006 404.825L813.006 408L809.83 408Z" fill="#1565D8"/>
<path d="M809.83 377.837L809.83 381.012L813.006 381.012L813.006 377.837L809.83 377.837Z" fill="#1565D8"/>
<path d="M836.824 408L836.824 404.825L840 404.825L840 408L836.824 408Z" fill="#1565D8"/>
<path d="M836.824 377.837L836.824 381.012L840 381.012L840 377.837L836.824 377.837Z" fill="#1565D8"/>
<path d="M809.83 354.023L809.83 350.848L813.006 350.848L813.006 354.023L809.83 354.023Z" fill="#1565D8"/>
<path d="M809.83 323.86L809.83 327.035L813.006 327.035L813.006 323.86L809.83 323.86Z" fill="#1565D8"/>
<path d="M836.824 354.023L836.824 350.848L840 350.848L840 354.023L836.824 354.023Z" fill="#1565D8"/>
<path d="M836.824 323.86L836.824 327.035L840 327.035L840 323.86L836.824 323.86Z" fill="#1565D8"/>
<path d="M755.841 296.872L755.841 300.047L759.017 300.047L759.017 296.872L755.841 296.872Z" fill="#1565D8"/>
<path d="M755.841 269.883L755.841 273.058L759.017 273.058L759.017 269.883L755.841 269.883Z" fill="#1565D8"/>
<path d="M782.836 300.047L782.836 296.872L786.011 296.872L786.011 300.047L782.836 300.047Z" fill="#1565D8"/>
<path d="M782.836 269.883L782.836 273.058L786.011 273.058L786.011 269.883L782.836 269.883Z" fill="#1565D8"/>
<path d="M755.841 246.07L755.841 242.895L759.017 242.895L759.017 246.07L755.841 246.07Z" fill="#1565D8"/>
<path d="M755.841 215.907L755.841 219.082L759.017 219.082L759.017 215.907L755.841 215.907Z" fill="#1565D8"/>
<path d="M782.836 246.07L782.836 242.895L786.011 242.895L786.011 246.07L782.836 246.07Z" fill="#1565D8"/>
<path d="M782.836 215.907L782.836 219.082L786.011 219.082L786.011 215.907L782.836 215.907Z" fill="#1565D8"/>
<path d="M809.83 300.047L809.83 296.872L813.006 296.872L813.006 300.047L809.83 300.047Z" fill="#1565D8"/>
<path d="M809.83 269.883L809.83 273.058L813.006 273.058L813.006 269.883L809.83 269.883Z" fill="#1565D8"/>
<path d="M836.824 300.047L836.824 296.872L840 296.872L840 300.047L836.824 300.047Z" fill="#1565D8"/>
<path d="M836.824 269.883L836.824 273.058L840 273.058L840 269.883L836.824 269.883Z" fill="#1565D8"/>
<path d="M809.83 246.07L809.83 242.895L813.006 242.895L813.006 246.07L809.83 246.07Z" fill="#1565D8"/>
<path d="M809.83 215.907L809.83 219.082L813.006 219.082L813.006 215.907L809.83 215.907Z" fill="#1565D8"/>
<path d="M836.824 246.07L836.824 242.895L840 242.895L840 246.07L836.824 246.07Z" fill="#1565D8"/>
<path d="M836.824 215.907L836.824 219.082L840 219.082L840 215.907L836.824 215.907Z" fill="#1565D8"/>
<path d="M647.864 192.093L647.864 188.918L651.04 188.918L651.04 192.093L647.864 192.093Z" fill="#1565D8"/>
<path d="M647.864 165.105L647.864 161.93L651.04 161.93L651.04 165.105L647.864 165.105Z" fill="#1565D8"/>
<path d="M674.858 188.918L674.858 192.093L678.034 192.093L678.034 188.918L674.858 188.918Z" fill="#1565D8"/>
<path d="M674.858 165.105L674.858 161.93L678.034 161.93L678.034 165.105L674.858 165.105Z" fill="#1565D8"/>
<path d="M647.864 134.942L647.864 138.117L651.04 138.117L651.04 134.942L647.864 134.942Z" fill="#1565D8"/>
<path d="M647.864 111.128L647.864 107.953L651.04 107.953L651.04 111.128L647.864 111.128Z" fill="#1565D8"/>
<path d="M674.858 134.942L674.858 138.117L678.034 138.117L678.034 134.942L674.858 134.942Z" fill="#1565D8"/>
<path d="M674.858 111.128L674.858 107.953L678.034 107.953L678.034 111.128L674.858 111.128Z" fill="#1565D8"/>
<path d="M701.853 188.918L701.853 192.093L705.028 192.093L705.028 188.918L701.853 188.918Z" fill="#1565D8"/>
<path d="M701.853 165.105L701.853 161.93L705.028 161.93L705.028 165.105L701.853 165.105Z" fill="#1565D8"/>
<path d="M728.847 188.918L728.847 192.093L732.023 192.093L732.023 188.918L728.847 188.918Z" fill="#1565D8"/>
<path d="M728.847 165.105L728.847 161.93L732.023 161.93L732.023 165.105L728.847 165.105Z" fill="#1565D8"/>
<path d="M701.853 134.942L701.853 138.117L705.028 138.117L705.028 134.942L701.853 134.942Z" fill="#1565D8"/>
<path d="M701.853 111.128L701.853 107.953L705.028 107.953L705.028 111.128L701.853 111.128Z" fill="#1565D8"/>
<path d="M728.847 134.942L728.847 138.117L732.023 138.117L732.023 134.942L728.847 134.942Z" fill="#1565D8"/>
<path d="M728.847 111.128L728.847 107.953L732.023 107.953L732.023 111.128L728.847 111.128Z" fill="#1565D8"/>
<path d="M647.864 84.1401L647.864 80.965L651.04 80.965L651.04 84.1401L647.864 84.1401Z" fill="#1565D8"/>
<path d="M647.864 57.1518L647.864 53.9767L651.04 53.9767L651.04 57.1518L647.864 57.1518Z" fill="#1565D8"/>
<path d="M674.858 80.965L674.858 84.1401L678.034 84.1401L678.034 80.965L674.858 80.965Z" fill="#1565D8"/>
<path d="M674.858 57.1518L674.858 53.9767L678.034 53.9767L678.034 57.1518L674.858 57.1518Z" fill="#1565D8"/>
<path d="M647.864 26.9883L647.864 30.1634L651.04 30.1634L651.04 26.9883L647.864 26.9883Z" fill="#1565D8"/>
<path d="M647.864 3.17511L647.864 2.19855e-06L651.04 2.05973e-06L651.04 3.17511L647.864 3.17511Z" fill="#1565D8"/>
<path d="M674.858 26.9883L674.858 30.1634L678.034 30.1634L678.034 26.9883L674.858 26.9883Z" fill="#1565D8"/>
<path d="M674.858 3.17511L674.858 1.01859e-06L678.034 8.79768e-07L678.034 3.17511L674.858 3.17511Z" fill="#1565D8"/>
<path d="M701.853 80.965L701.853 84.1401L705.028 84.1401L705.028 80.965L701.853 80.965Z" fill="#1565D8"/>
<path d="M701.853 57.1518L701.853 53.9767L705.028 53.9767L705.028 57.1518L701.853 57.1518Z" fill="#1565D8"/>
<path d="M728.847 80.965L728.847 84.1401L732.023 84.1401L732.023 80.965L728.847 80.965Z" fill="#1565D8"/>
<path d="M728.847 57.1518L728.847 53.9767L732.023 53.9767L732.023 57.1518L728.847 57.1518Z" fill="#1565D8"/>
<path d="M701.853 26.9883L701.853 30.1634L705.028 30.1634L705.028 26.9883L701.853 26.9883Z" fill="#1565D8"/>
<path d="M701.853 3.17511L701.853 -1.61371e-07L705.028 -3.00191e-07L705.028 3.17511L701.853 3.17511Z" fill="#1565D8"/>
<path d="M728.847 26.9883L728.847 30.1634L732.023 30.1634L732.023 26.9883L728.847 26.9883Z" fill="#1565D8"/>
<path d="M728.847 3.17511L728.847 -1.34133e-06L732.023 -1.48015e-06L732.023 3.17511L728.847 3.17511Z" fill="#1565D8"/>
<path d="M755.841 192.093L755.841 188.918L759.017 188.918L759.017 192.093L755.841 192.093Z" fill="#1565D8"/>
<path d="M755.841 165.105L755.841 161.93L759.017 161.93L759.017 165.105L755.841 165.105Z" fill="#1565D8"/>
<path d="M782.836 188.918L782.836 192.093L786.011 192.093L786.011 188.918L782.836 188.918Z" fill="#1565D8"/>
<path d="M782.836 165.105L782.836 161.93L786.011 161.93L786.011 165.105L782.836 165.105Z" fill="#1565D8"/>
<path d="M755.841 134.942L755.841 138.117L759.017 138.117L759.017 134.942L755.841 134.942Z" fill="#1565D8"/>
<path d="M755.841 111.128L755.841 107.953L759.017 107.953L759.017 111.128L755.841 111.128Z" fill="#1565D8"/>
<path d="M782.836 134.942L782.836 138.117L786.011 138.117L786.011 134.942L782.836 134.942Z" fill="#1565D8"/>
<path d="M782.836 111.128L782.836 107.953L786.011 107.953L786.011 111.128L782.836 111.128Z" fill="#1565D8"/>
<path d="M809.83 188.918L809.83 192.093L813.006 192.093L813.006 188.918L809.83 188.918Z" fill="#1565D8"/>
<path d="M809.83 165.105L809.83 161.93L813.006 161.93L813.006 165.105L809.83 165.105Z" fill="#1565D8"/>
<path d="M836.824 188.918L836.824 192.093L840 192.093L840 188.918L836.824 188.918Z" fill="#1565D8"/>
<path d="M836.824 165.105L836.824 161.93L840 161.93L840 165.105L836.824 165.105Z" fill="#1565D8"/>
<path d="M809.83 134.942L809.83 138.117L813.006 138.117L813.006 134.942L809.83 134.942Z" fill="#1565D8"/>
<path d="M809.83 111.128L809.83 107.953L813.006 107.953L813.006 111.128L809.83 111.128Z" fill="#1565D8"/>
<path d="M836.824 134.942L836.824 138.117L840 138.117L840 134.942L836.824 134.942Z" fill="#1565D8"/>
<path d="M836.824 111.128L836.824 107.953L840 107.953L840 111.128L836.824 111.128Z" fill="#1565D8"/>
<path d="M755.841 84.1401L755.841 80.965L759.017 80.965L759.017 84.1401L755.841 84.1401Z" fill="#1565D8"/>
<path d="M755.841 57.1518L755.841 53.9767L759.017 53.9767L759.017 57.1518L755.841 57.1518Z" fill="#1565D8"/>
<path d="M782.836 80.965L782.836 84.1401L786.011 84.1401L786.011 80.965L782.836 80.965Z" fill="#1565D8"/>
<path d="M782.836 57.1518L782.836 53.9767L786.011 53.9767L786.011 57.1518L782.836 57.1518Z" fill="#1565D8"/>
<path d="M755.841 26.9883L755.841 30.1634L759.017 30.1634L759.017 26.9883L755.841 26.9883Z" fill="#1565D8"/>
<path d="M755.841 3.17511L755.841 -2.52129e-06L759.017 -2.66011e-06L759.017 3.17511L755.841 3.17511Z" fill="#1565D8"/>
<path d="M782.836 26.9883L782.836 30.1634L786.011 30.1634L786.011 26.9883L782.836 26.9883Z" fill="#1565D8"/>
<path d="M782.836 3.17511L782.836 -3.70125e-06L786.011 -3.84007e-06L786.011 3.17511L782.836 3.17511Z" fill="#1565D8"/>
<path d="M809.83 80.965L809.83 84.1401L813.006 84.1401L813.006 80.965L809.83 80.965Z" fill="#1565D8"/>
<path d="M809.83 57.1518L809.83 53.9766L813.006 53.9766L813.006 57.1518L809.83 57.1518Z" fill="#1565D8"/>
<path d="M836.824 80.965L836.824 84.1401L840 84.1401L840 80.965L836.824 80.965Z" fill="#1565D8"/>
<path d="M836.824 57.1518L836.824 53.9766L840 53.9766L840 57.1518L836.824 57.1518Z" fill="#1565D8"/>
<path d="M809.83 26.9883L809.83 30.1634L813.006 30.1634L813.006 26.9883L809.83 26.9883Z" fill="#1565D8"/>
<path d="M809.83 3.1751L809.83 -4.88121e-06L813.006 -5.02003e-06L813.006 3.1751L809.83 3.1751Z" fill="#1565D8"/>
<path d="M836.824 26.9883L836.824 30.1634L840 30.1634L840 26.9883L836.824 26.9883Z" fill="#1565D8"/>
<path d="M836.824 3.1751L836.824 -6.06117e-06L840 -6.19999e-06L840 3.1751L836.824 3.1751Z" fill="#1565D8"/>
</g>
</svg>
