<svg width="21" height="20" viewBox="0 0 21 20" fill="none" xmlns="http://www.w3.org/2000/svg">
<path fill-rule="evenodd" clip-rule="evenodd" d="M13.0882 13.8309C11.7144 14.848 9.988 15.4537 8.11312 15.4537C3.63237 15.4537 0 11.9943 0 7.72686C0 3.45943 3.63237 0 8.11312 0C12.5939 0 16.2262 3.45943 16.2262 7.72686C16.2262 9.51242 15.5903 11.1565 14.5224 12.4649L21 18.6341L19.5658 20L13.0882 13.8309ZM14.198 7.72686C14.198 10.9274 11.4737 13.522 8.11312 13.522C4.75256 13.522 2.02828 10.9274 2.02828 7.72686C2.02828 4.5263 4.75256 1.93171 8.11312 1.93171C11.4737 1.93171 14.198 4.5263 14.198 7.72686Z" fill="black"/>
</svg>
