<svg width="81" height="81" viewBox="0 0 81 81" fill="none" xmlns="http://www.w3.org/2000/svg">
<path d="M79.6133 14.4879C78.876 7.58015 73.4205 2.12338 66.5121 1.38675C49.1876 -0.46225 31.8124 -0.46225 14.4886 1.38675C7.58015 2.124 2.124 7.58015 1.38675 14.4879C-0.46225 31.8118 -0.46225 49.1876 1.38675 66.5114C2.124 73.4198 7.58015 78.876 14.4879 79.6133C31.8118 81.4622 49.1876 81.4622 66.5121 79.6133C73.4205 78.876 78.876 73.4198 79.6133 66.5114C81.4622 49.1876 81.4622 31.8124 79.6133 14.4879Z" fill="url(#paint0_radial)"/>
<path d="M75.2077 17.4178C74.5539 11.2881 69.7126 6.44618 63.5822 5.79174C48.2093 4.15162 32.7907 4.15162 17.4178 5.79174C11.2881 6.44618 6.44618 11.2881 5.79174 17.4178C4.15162 32.7907 4.15162 48.2093 5.79174 63.5816C6.44618 69.712 11.2881 74.5539 17.4178 75.2077C32.7907 76.8484 48.2093 76.8484 63.5816 75.2077C69.712 74.5539 74.5539 69.712 75.2077 63.5816C76.8484 48.2093 76.8484 32.7907 75.2077 17.4178Z" fill="url(#paint1_linear)"/>
<path d="M1.21375 64.8324C1.26936 65.3923 1.32684 65.9522 1.38678 66.5121C2.12403 73.4199 7.58018 78.876 14.4886 79.6133C31.8125 81.4623 49.1882 81.4623 66.5121 79.6133C73.4205 78.876 78.876 73.4199 79.6133 66.5121C79.6732 65.9522 79.7307 65.3923 79.7869 64.8324H1.21375Z" fill="url(#paint2_linear)"/>
<path d="M79.6132 66.5114C80.6069 57.2028 81.0655 47.8793 80.9913 38.5571L62.4766 20.0424C60.1635 17.4017 56.785 15.7536 52.8151 15.6108C44.6509 15.3167 36.4608 15.3315 28.2954 15.6121C21.5137 15.8457 16.7713 20.4039 15.5551 27.1034C15.3407 28.2862 15.2122 29.4845 15.0435 30.676V50.3166C15.1368 50.9531 15.274 51.5866 15.3166 52.2268C15.5885 56.3018 17.2632 59.7921 19.9447 62.1534L38.7857 80.9938C48.0319 81.0587 57.2787 80.5989 66.512 79.6133C73.4204 78.876 78.8759 73.4198 79.6132 66.5114Z" fill="url(#paint3_linear)"/>
<path d="M79.6132 66.512C78.8766 73.4192 73.4192 78.8766 66.512 79.6132C57.28 80.5983 48.0313 81.0587 38.7863 80.9938L19.9738 62.1812C22.1546 64.0902 24.9973 65.2526 28.2961 65.3768C36.4596 65.6833 44.6516 65.6753 52.8151 65.3811C60.1987 65.1142 65.5418 59.6493 65.7723 52.2657C66.0183 44.426 66.0183 36.5659 65.7723 28.7262C65.6673 25.3199 64.4715 22.3227 62.489 20.0547L80.992 38.5577C81.0649 47.8787 80.6063 57.2034 79.6132 66.512Z" fill="url(#paint4_linear)"/>
<path d="M50.0577 31.729C47.6859 29.1465 44.2827 27.5261 40.5 27.5261C33.3351 27.5261 27.5261 33.3351 27.5261 40.5C27.5261 44.2827 29.1465 47.6859 31.729 50.0577L61.7462 80.0749C63.335 79.9365 64.9239 79.7826 66.5115 79.6133C73.4199 78.876 78.876 73.4199 79.6133 66.5115C79.7826 64.9239 79.9365 63.335 80.0749 61.7462L50.0577 31.729Z" fill="url(#paint5_linear)"/>
<path d="M80.8431 49.2253L56.685 25.0678C56.1214 24.3281 55.2333 23.8479 54.2316 23.8479C52.5272 23.8479 51.1448 25.2297 51.1448 26.9347C51.1448 27.9365 51.6249 28.8245 52.3647 29.3881L80.4111 57.4352C80.6015 54.6994 80.7454 51.9623 80.8431 49.2253Z" fill="url(#paint6_linear)"/>
<path d="M15.0435 30.676C15.2122 29.4845 15.3407 28.2862 15.5551 27.1034C16.7707 20.4039 21.5137 15.8457 28.2954 15.6121C36.4608 15.3315 44.6509 15.3167 52.8151 15.6108C60.1962 15.8766 65.5418 21.342 65.7723 28.7256C66.0176 36.5659 66.0176 44.4254 65.7723 52.2657C65.5418 59.6494 60.1981 65.1142 52.8157 65.3805C44.6515 65.6753 36.4596 65.6827 28.2961 65.3762C20.9137 65.0987 15.8104 59.6209 15.3166 52.2262C15.274 51.5866 15.1368 50.9525 15.0435 50.316C15.0435 43.7691 15.0435 37.2222 15.0435 30.676ZM40.5067 61.0046C44.2431 61.0046 47.9831 61.1165 51.7144 60.9787C57.5649 60.7617 61.1634 57.2701 61.2999 51.4253C61.4693 44.1424 61.4693 36.8496 61.2999 29.5661C61.1634 23.7224 57.5624 20.1493 51.7144 20.0251C44.2919 19.8681 36.8613 19.8693 29.4387 20.0251C23.6352 20.1468 20.0262 23.6477 19.8687 29.427C19.6684 36.802 19.6684 44.19 19.8687 51.5649C20.0262 57.3437 23.6352 60.7636 29.4393 60.9787C33.1237 61.1158 36.8174 61.0046 40.5067 61.0046Z" fill="url(#paint7_linear)"/>
<path d="M15.0435 30.676C15.2122 29.4845 15.3407 28.2862 15.5551 27.1034C16.7707 20.4039 21.5137 15.8457 28.2954 15.6121C36.4608 15.3315 44.6509 15.3167 52.8151 15.6108C60.1962 15.8766 65.5418 21.342 65.7723 28.7256C66.0176 36.5659 66.0176 44.4254 65.7723 52.2657C65.5418 59.6494 60.1981 65.1142 52.8157 65.3805C44.6515 65.6753 36.4596 65.6827 28.2961 65.3762C20.9137 65.0987 15.8104 59.6209 15.3166 52.2262C15.274 51.5866 15.1368 50.9525 15.0435 50.316C15.0435 43.7691 15.0435 37.2222 15.0435 30.676ZM40.5067 61.0046C44.2431 61.0046 47.9831 61.1165 51.7144 60.9787C57.5649 60.7617 61.1634 57.2701 61.2999 51.4253C61.4693 44.1424 61.4693 36.8496 61.2999 29.5661C61.1634 23.7224 57.5624 20.1493 51.7144 20.0251C44.2919 19.8681 36.8613 19.8693 29.4387 20.0251C23.6352 20.1468 20.0262 23.6477 19.8687 29.427C19.6684 36.802 19.6684 44.19 19.8687 51.5649C20.0262 57.3437 23.6352 60.7636 29.4393 60.9787C33.1237 61.1158 36.8174 61.0046 40.5067 61.0046Z" fill="white"/>
<path d="M40.4999 27.5267C33.335 27.5267 27.526 33.3351 27.526 40.5C27.526 47.6655 33.335 53.4739 40.4999 53.4739C47.6654 53.4739 53.4738 47.6655 53.4738 40.5C53.4738 33.3351 47.6654 27.5267 40.4999 27.5267ZM40.4999 49.0071C35.8014 49.0071 31.9928 45.1985 31.9928 40.5C31.9928 35.8015 35.8014 31.9929 40.4999 31.9929C45.1984 31.9929 49.007 35.8015 49.007 40.5C49.007 45.1985 45.1984 49.0071 40.4999 49.0071Z" fill="white"/>
<path d="M57.3177 26.9347C57.3177 28.6391 55.9359 30.0209 54.2315 30.0209C52.5271 30.0209 51.1447 28.6391 51.1447 26.9347C51.1447 25.2297 52.5271 23.8479 54.2315 23.8479C55.9359 23.8479 57.3177 25.2297 57.3177 26.9347Z" fill="white"/>
<defs>
<radialGradient id="paint0_radial" cx="0" cy="0" r="1" gradientUnits="userSpaceOnUse" gradientTransform="translate(16.6045 70.7876) scale(89.3287)">
<stop stop-color="#FAE100"/>
<stop offset="0.0544" stop-color="#FADC04"/>
<stop offset="0.1167" stop-color="#FBCE0E"/>
<stop offset="0.1829" stop-color="#FCB720"/>
<stop offset="0.2514" stop-color="#FE9838"/>
<stop offset="0.3054" stop-color="#FF7950"/>
<stop offset="0.4922" stop-color="#FF1C74"/>
<stop offset="1" stop-color="#6C1CD1"/>
</radialGradient>
<linearGradient id="paint1_linear" x1="31.0668" y1="35.1938" x2="-106.157" y2="-41.9944" gradientUnits="userSpaceOnUse">
<stop stop-color="#A1B5D8" stop-opacity="0"/>
<stop offset="0.3094" stop-color="#90A2BD" stop-opacity="0.309804"/>
<stop offset="0.7554" stop-color="#7C8B9C" stop-opacity="0.756863"/>
<stop offset="1" stop-color="#748290"/>
</linearGradient>
<linearGradient id="paint2_linear" x1="40.5001" y1="71.5025" x2="40.5001" y2="84.1283" gradientUnits="userSpaceOnUse">
<stop stop-color="#FAE100" stop-opacity="0"/>
<stop offset="0.3068" stop-color="#FCA800" stop-opacity="0.305882"/>
<stop offset="0.6275" stop-color="#FE7300" stop-opacity="0.627451"/>
<stop offset="0.8685" stop-color="#FF5200" stop-opacity="0.866667"/>
<stop offset="1" stop-color="#FF4500"/>
</linearGradient>
<linearGradient id="paint3_linear" x1="35.8919" y1="35.7773" x2="15.8457" y2="15.7311" gradientUnits="userSpaceOnUse">
<stop stop-color="#833AB4" stop-opacity="0"/>
<stop offset="1" stop-color="#833AB4"/>
</linearGradient>
<linearGradient id="paint4_linear" x1="55.5134" y1="74.0845" x2="45.508" y2="26.9163" gradientUnits="userSpaceOnUse">
<stop stop-color="#833AB4" stop-opacity="0"/>
<stop offset="1" stop-color="#833AB4"/>
</linearGradient>
<linearGradient id="paint5_linear" x1="59.3207" y1="59.3206" x2="19.1333" y2="19.1332" gradientUnits="userSpaceOnUse">
<stop stop-color="#833AB4" stop-opacity="0"/>
<stop offset="1" stop-color="#833AB4"/>
</linearGradient>
<linearGradient id="paint6_linear" x1="62.3015" y1="35.0045" x2="49.0123" y2="21.7153" gradientUnits="userSpaceOnUse">
<stop stop-color="#833AB4" stop-opacity="0"/>
<stop offset="1" stop-color="#833AB4"/>
</linearGradient>
<linearGradient id="paint7_linear" x1="56.5826" y1="24.5293" x2="23.8163" y2="57.2957" gradientUnits="userSpaceOnUse">
<stop stop-color="#833AB4"/>
<stop offset="0.0922" stop-color="#9C3495"/>
<stop offset="0.2927" stop-color="#DC2546"/>
<stop offset="0.392" stop-color="#FD1D1D"/>
<stop offset="0.5589" stop-color="#FC6831"/>
<stop offset="0.6887" stop-color="#FC9B40"/>
<stop offset="0.7521" stop-color="#FCAF45"/>
<stop offset="0.7806" stop-color="#FDB750"/>
<stop offset="0.8656" stop-color="#FECB6A"/>
<stop offset="0.9415" stop-color="#FFD87A"/>
<stop offset="1" stop-color="#FFDC80"/>
</linearGradient>
</defs>
</svg>
