<svg width="84" height="84" viewBox="0 0 84 84" fill="none" xmlns="http://www.w3.org/2000/svg">
<g clip-path="url(#clip0)">
<path d="M42.0006 83.9993C65.1964 83.9993 84.0002 65.1954 84.0002 41.9996C84.0002 18.8039 65.1964 0 42.0006 0C18.8049 0 0.000976562 18.8039 0.000976562 41.9996C0.000976562 65.1954 18.8049 83.9993 42.0006 83.9993Z" fill="#55ACEE"/>
<path d="M67.7267 30.1839C65.9269 30.982 63.9908 31.5218 61.9604 31.7629C64.0335 30.5208 65.6244 28.5555 66.3754 26.2099C64.4355 27.3606 62.2861 28.1954 60.0003 28.6454C58.1691 26.6951 55.5599 25.4762 52.6707 25.4762C47.1275 25.4762 42.6316 29.972 42.6316 35.5153C42.6316 36.3022 42.7207 37.0681 42.8929 37.8033C34.5496 37.3847 27.1519 33.3883 22.2001 27.3127C21.3361 28.7951 20.8405 30.5208 20.8405 32.3603C20.8405 35.8425 22.6141 38.9166 25.3064 40.7164C23.6615 40.6647 22.1125 40.2133 20.7596 39.4594C20.7589 39.502 20.7589 39.5447 20.7589 39.5866C20.7589 44.4508 24.2208 48.5079 28.8124 49.4296C27.9709 49.6602 27.0822 49.7822 26.1681 49.7822C25.5197 49.7822 24.8916 49.72 24.2792 49.6033C25.5564 53.5907 29.2631 56.4934 33.6572 56.575C30.2207 59.268 25.8926 60.8724 21.1879 60.8724C20.3793 60.8724 19.5782 60.8253 18.7943 60.7317C23.2348 63.5812 28.513 65.2425 34.182 65.2425C52.6475 65.2425 62.7458 49.9454 62.7458 36.678C62.7458 36.243 62.736 35.8095 62.7166 35.3798C64.6796 33.9648 66.3814 32.1971 67.7267 30.1839Z" fill="#F1F2F2"/>
</g>
<defs>
<clipPath id="clip0">
<rect width="84" height="84" fill="white"/>
</clipPath>
</defs>
</svg>
