<svg width="80" height="80" viewBox="0 0 80 80" fill="none" xmlns="http://www.w3.org/2000/svg">
<path d="M40.01 0H39.99C17.935 0 0 17.94 0 40C0 48.75 2.82 56.86 7.615 63.445L2.63 78.305L18.005 73.39C24.33 77.58 31.875 80 40.01 80C62.065 80 80 62.055 80 40C80 17.945 62.065 0 40.01 0Z" fill="#4CAF50"/>
<path d="M63.2853 56.485C62.3203 59.21 58.4903 61.47 55.4353 62.13C53.3453 62.575 50.6153 62.93 41.4253 59.12C29.6703 54.25 22.1003 42.305 21.5103 41.53C20.9453 40.755 16.7603 35.205 16.7603 29.465C16.7603 23.725 19.6753 20.93 20.8503 19.73C21.8153 18.745 23.4103 18.295 24.9403 18.295C25.4353 18.295 25.8803 18.32 26.2803 18.34C27.4553 18.39 28.0453 18.46 28.8203 20.315C29.7853 22.64 32.1353 28.38 32.4153 28.97C32.7003 29.56 32.9853 30.36 32.5853 31.135C32.2103 31.935 31.8803 32.29 31.2903 32.97C30.7003 33.65 30.1403 34.17 29.5503 34.9C29.0103 35.535 28.4003 36.215 29.0803 37.39C29.7603 38.54 32.1103 42.375 35.5703 45.455C40.0353 49.43 43.6553 50.7 44.9503 51.24C45.9153 51.64 47.0653 51.545 47.7703 50.795C48.6653 49.83 49.7703 48.23 50.8953 46.655C51.6953 45.525 52.7053 45.385 53.7653 45.785C54.8453 46.16 60.5603 48.985 61.7353 49.57C62.9103 50.16 63.6853 50.44 63.9703 50.935C64.2503 51.43 64.2503 53.755 63.2853 56.485Z" fill="#FAFAFA"/>
</svg>
